<svg data-v-0dd9719b="" version="1.0" xmlns="http://www.w3.org/2000/svg" xmlns:xlink="http://www.w3.org/1999/xlink" width="100%" height="100%" viewBox="0 0 340.000000 250.000000" preserveAspectRatio="xMidYMid meet" color-interpolation-filters="sRGB" style="margin: auto;"> <rect data-v-0dd9719b="" x="0" y="0" width="100%" height="100%" fill="#fff" fill-opacity="1" class="background"></rect> <rect data-v-0dd9719b="" x="0" y="0" width="100%" height="100%" fill="url(#watermark)" fill-opacity="1" class="watermarklayer"></rect> <g data-v-0dd9719b="" fill="#0baccc" class="icon-text-wrapper icon-svg-group iconsvg" transform="translate(46.464996337890625,104.8098087310791)"><g class="iconsvg-imagesvg" transform="translate(0,0)"><g><rect fill="#0baccc" fill-opacity="0" stroke-width="2" x="0" y="0" width="60" height="40.38038320983666" class="image-rect"></rect> <svg x="0" y="0" width="60" height="40.38038320983666" filtersec="colorsb7427210958" class="image-svg-svg primary" style="overflow: visible;"><svg xmlns="http://www.w3.org/2000/svg" viewBox="0 0 82.05000305175781 55.220001220703125"><defs><linearGradient id="a80b13874-b921-4879-b142-fe268c73db89" x1="50.96" y1="43.85" x2="88.43" y2="6.38" gradientUnits="userSpaceOnUse"><stop offset="0" stop-color="#a8083f"></stop><stop offset=".18" stop-color="#b10942"></stop><stop offset=".67" stop-color="#c50a49"></stop><stop offset="1" stop-color="#cc0a4c"></stop></linearGradient><linearGradient id="b17332479-7a55-48f8-bfc6-745e2ad7eaf2" x1="-5.61" y1="49.61" x2="31.68" y2="12.32" gradientUnits="userSpaceOnUse"><stop offset="0" stop-color="#cc0a4c"></stop><stop offset=".33" stop-color="#c50a49"></stop><stop offset=".82" stop-color="#b10942"></stop><stop offset="1" stop-color="#a8083f"></stop></linearGradient><linearGradient id="cea6339c7-de3c-4a36-b473-9b0d3310517a" x1="26.02" y1="42.45" x2="55.84" y2="12.62" gradientUnits="userSpaceOnUse"><stop offset="0" stop-color="#0baccc"></stop><stop offset=".06" stop-color="#0baece"></stop><stop offset=".6" stop-color="#0dbde0"></stop><stop offset="1" stop-color="#0dc2e6"></stop></linearGradient></defs><g><g><path d="M55.59 23l-5.1 13.8 11.85 18.42L82.05 0C70.78 0 62 6.23 55.59 23z" fill="url(#a80b13874-b921-4879-b142-fe268c73db89)"></path><path d="M19.36 0L0 55.22c9.9 0 19.1-1.61 22.59-11.59l7.17-20.46z" fill="url(#b17332479-7a55-48f8-bfc6-745e2ad7eaf2)"></path><path d="M50.11 29.29C34 14.15 19.36 0 19.36 0l-9.29 26.5s5.4-15.3 21.74.06 30.53 28.66 30.53 28.66l9.5-26.61s-5.71 15.76-21.73.68z" fill="url(#cea6339c7-de3c-4a36-b473-9b0d3310517a)"></path></g></g></svg></svg> <!----></g></g> <g transform="translate(67,3.3601913452148438)"><g data-gra="path-name" fill-rule="" class="tp-name iconsvg-namesvg"><g transform="scale(1)"><g><path d="M21.32-32.2L32.04-32.57 30.41-1.77 18.51-0.68 12.15-17.17 11.15-0.36 0.93-0.36 1.75-32.57 13.1-33.11 20.96-16.76 21.32-32.2ZM59.23-18.35L59.23-18.35Q59.23-16.37 58.96-14.4L58.96-14.4Q55.07-14.15 51.23-13.59 47.4-13.04 43.56-12.49L43.56-12.49Q44.15-10.86 45.41-9.88 46.67-8.9 48.42-8.9L48.42-8.9Q49.33-8.9 50.4-9.24 51.48-9.58 52.55-10.09 53.62-10.61 54.6-11.2 55.57-11.79 56.28-12.26L56.28-12.26 55.19-1.95Q54.3-1.27 53.27-0.79 52.23-0.32 51.12-0.02 50.01 0.27 48.87 0.41 47.74 0.55 46.65 0.55L46.65 0.55Q44.4 0.55 42.54-0.07 40.67-0.68 39.16-1.78 37.65-2.88 36.52-4.38 35.38-5.88 34.63-7.65 33.88-9.42 33.5-11.4 33.11-13.38 33.11-15.4L33.11-15.4Q33.11-17.51 33.5-19.62 33.88-21.73 34.67-23.69 35.45-25.64 36.64-27.31 37.83-28.98 39.42-30.23 41.01-31.48 43.02-32.18 45.03-32.88 47.46-32.88L47.46-32.88Q49.49-32.88 51.15-32.33 52.82-31.77 54.13-30.78 55.44-29.8 56.4-28.43 57.37-27.07 57.99-25.45 58.61-23.82 58.92-22.02 59.23-20.21 59.23-18.35ZM50.14-19.03L50.14-19.53Q50.14-20.17 50.01-20.84 49.87-21.51 49.56-22.05 49.26-22.6 48.76-22.95 48.26-23.3 47.51-23.3L47.51-23.3Q46.6-23.3 45.91-22.81 45.22-22.32 44.72-21.59 44.22-20.85 43.9-19.98 43.58-19.12 43.42-18.4L43.42-18.4 50.14-19.03ZM60-31.98L84.75-32.02 84.53-22.39 77.76-22.12 76.94-1.04 67.36-0.55 66.5-21.62 59.73-21.26 60-31.98ZM115.84-32.52L127.06-31.52 121.75-0.95 108.85-0.68 106.08-16.08 103.31-1.86 90.41-1.41 85.05-30.61 96.31-31.61 98.58-13.67 101.63-30.25 110.48-30.25 114.03-13.44 115.84-32.52ZM146.43-32.52L155.29-1.95 144.03-0.5 142.66-5.63 137.49-5.63 136.35-0.5 124.77-1.64 133.81-31.88 146.43-32.52ZM138.44-12.58L141.85-12.58 140.12-20.48 138.44-12.58ZM170.1-31.52L181-30.75 170.33-13.31 170.64-0.45 158.97-0.45 159.24-13.22 150.93-30.07 162.51-31.52 166.15-21.71 170.1-31.52Z" transform="translate(-0.9300000667572021, 33.11000061035156)"></path></g> <!----> <!----> <!----> <!----> <!----> <!----> <!----></g></g> <!----></g></g><defs v-gra="od"></defs></svg>